<svg width="400" height="100" xmlns="http://www.w3.org/2000/svg">
  <defs>
    <linearGradient id="iconGradient" x1="0%" y1="0%" x2="100%" y2="100%">
      <stop offset="0%" style="stop-color:#1E3A5F;stop-opacity:1" />
      <stop offset="100%" style="stop-color:#00C896;stop-opacity:1" />
    </linearGradient>
  </defs>
  
  <!-- アイコン1: 炎上状態 -->
  <g transform="translate(20, 20)">
    <circle cx="30" cy="30" r="25" fill="url(#iconGradient)" stroke="#00C896" stroke-width="2"/>
    <!-- 炎の形 -->
    <path d="M25,40 L30,25 L35,40 L30,35 Z" fill="#FF6B35"/>
    <path d="M28,38 L30,30 L32,38 L30,35 Z" fill="#FF8C42"/>
  </g>
  
  <!-- アイコン2: 診断・分析 -->
  <g transform="translate(120, 20)">
    <circle cx="30" cy="30" r="25" fill="url(#iconGradient)" stroke="#00C896" stroke-width="2"/>
    <!-- 虫眼鏡 -->
    <circle cx="25" cy="25" r="8" fill="none" stroke="white" stroke-width="2"/>
    <line x1="30" y1="30" x2="35" y2="35" stroke="white" stroke-width="2"/>
  </g>
  
  <!-- アイコン3: 介入・サポート -->
  <g transform="translate(220, 20)">
    <circle cx="30" cy="30" r="25" fill="url(#iconGradient)" stroke="#00C896" stroke-width="2"/>
    <!-- 手のサポート -->
    <path d="M20,35 L25,30 L30,35 L35,30 L40,35" fill="none" stroke="white" stroke-width="2"/>
    <circle cx="30" cy="25" r="3" fill="white"/>
  </g>
  
  <!-- アイコン4: 自立・成長 -->
  <g transform="translate(320, 20)">
    <circle cx="30" cy="30" r="25" fill="url(#iconGradient)" stroke="#00C896" stroke-width="2"/>
    <!-- 成長の矢印 -->
    <path d="M25,40 L30,20 L35,40" fill="none" stroke="white" stroke-width="2"/>
    <path d="M30,20 L28,25 L30,20 L32,25" fill="none" stroke="white" stroke-width="2"/>
  </g>
</svg> 